<svg width="145" height="31" viewBox="0 0 145 31" fill="none" xmlns="http://www.w3.org/2000/svg">
<path d="M22.3359 30.665H29.1254V9.44492H22.3359V30.665Z" fill="white"/>
<path d="M30.5311 30.665H37.3218V1.14794H30.5311V30.665Z" fill="white"/>
<path d="M38.7274 30.665H45.5181V1.14794H38.7274V30.665Z" fill="white"/>
<path d="M111.809 9.44602H118.6V11.634C119.605 9.98293 121.091 9.32246 123.14 9.23938V16.5456H122.337C119.925 16.5456 118.6 17.9496 118.6 20.5509V30.665H111.809V9.44602Z" fill="white"/>
<path d="M21.7937 4.04555C21.7937 1.81163 23.5569 -0.000106812 25.7309 -0.000106812C27.9059 -0.000106812 29.6691 1.81163 29.6691 4.04555C29.6691 6.27958 27.9059 8.09131 25.7309 8.09131C23.5569 8.09131 21.7937 6.27958 21.7937 4.04555Z" fill="white"/>
<path d="M110.402 9.48106H103.611V11.0614C102.658 9.99205 100.438 9.10817 98.7501 9.10817C92.8249 9.10817 88.8291 13.7435 88.8291 20.2669C88.8291 26.7892 93.3251 31 98.8295 31C100.518 31 102.367 30.4215 103.611 29.4724V30.6698H110.402V21.3822C110.402 21.0014 110.4 20.6296 110.392 20.2669C110.4 19.9041 110.402 19.5324 110.402 19.1517V9.48106ZM99.1384 24.0082C96.9634 24.0082 95.2013 22.1953 95.2013 19.9615C95.2013 17.7275 96.9634 15.9157 99.1384 15.9157C101.313 15.9157 103.075 17.7275 103.075 19.9615C103.075 22.1953 101.313 24.0082 99.1384 24.0082Z" fill="white"/>
<path d="M138.209 1.14562V10.5163C136.883 9.56722 135.357 9.15503 133.507 9.15503C127.843 9.15503 123.423 13.6544 123.423 20.1352C123.423 26.2442 127.682 30.9502 132.864 30.9502C134.995 30.9502 136.722 30.2483 138.33 28.7218V30.6616H145V1.14562H138.209ZM134.211 24.1506C132.036 24.1506 130.274 22.3378 130.274 20.1038C130.274 17.8697 132.036 16.0581 134.211 16.0581C136.386 16.0581 138.149 17.8697 138.149 20.1038C138.149 22.3378 136.386 24.1506 134.211 24.1506Z" fill="white"/>
<path d="M58.5012 9.16127C56.6526 9.16127 55.1252 9.57463 53.7991 10.5226V1.15187H47.0084V30.669H53.6784V28.7281C55.2867 30.2556 57.0134 30.9575 59.1442 30.9575C64.3265 30.9575 68.5858 26.2515 68.5858 20.1426C68.5858 13.6608 64.1661 9.16127 58.5012 9.16127ZM57.7784 24.2028C55.6033 24.2028 53.8401 22.3912 53.8401 20.156C53.8401 17.9232 55.6033 16.1115 57.7784 16.1115C59.9523 16.1115 61.7155 17.9232 61.7155 20.156C61.7155 22.3912 59.9523 24.2028 57.7784 24.2028Z" fill="white"/>
<path d="M11.4927 9.16127C9.64422 9.16127 8.11668 9.57463 6.79068 10.5226V1.15187H0V30.669H6.66999V28.7281C8.27828 30.2556 10.005 30.9575 12.1357 30.9575C17.318 30.9575 21.5773 26.2515 21.5773 20.1426C21.5773 13.6608 17.1587 9.16127 11.4927 9.16127ZM10.7699 24.2028C8.59488 24.2028 6.83159 22.3912 6.83159 20.156C6.83159 17.9232 8.59488 16.1115 10.7699 16.1115C12.9437 16.1115 14.707 17.9232 14.707 20.156C14.707 22.3912 12.9437 24.2028 10.7699 24.2028Z" fill="white"/>
<path d="M78.733 8.9808C72.8665 8.9808 68.2054 13.9352 68.2054 19.961C68.2054 25.9891 72.8255 30.9434 78.733 30.9434C84.6802 30.9434 89.2603 25.9474 89.2603 19.961C89.2603 13.9767 84.5993 8.9808 78.733 8.9808ZM78.733 23.8798C76.558 23.8798 74.7958 22.0681 74.7958 19.833C74.7958 17.6 76.558 15.7874 78.733 15.7874C80.9079 15.7874 82.67 17.6 82.67 19.833C82.67 22.0681 80.9079 23.8798 78.733 23.8798Z" fill="white"/>
</svg>
