<svg width="300" height="71" viewBox="0 0 300 71" fill="none" xmlns="http://www.w3.org/2000/svg">
<g clip-path="url(#clip0)">
<path d="M174.627 63.8527L175.579 60.7263H168.161L169.066 57.8191H178.094L179.057 54.6523H165.675L160.973 70.0594H174.356L175.319 66.8984H166.263L167.203 63.8527H174.627Z" fill="white"/>
<path d="M155.714 54.6523H147.587L142.886 70.0594H147.229L148.839 64.7641H151.873L154.122 70.0594H158.726L155.986 64.3661C158.587 63.8758 160.191 62.5491 160.842 60.3687L160.958 59.9995C161.944 56.752 159.92 54.6523 155.714 54.6523ZM156.562 59.6476L156.528 59.7861C156.043 61.332 154.924 61.8569 153.159 61.8569H149.721L151.042 57.548H154.815C156.436 57.548 156.983 58.2806 156.562 59.6476" fill="white"/>
<path d="M225.716 54.6523H217.588L212.887 70.0594H217.231L218.84 64.7641H221.874L224.124 70.0594H228.727L225.987 64.3661C228.588 63.8758 230.192 62.5491 230.844 60.3687L230.959 59.9995C231.945 56.752 229.921 54.6523 225.716 54.6523ZM226.564 59.6476L226.529 59.7861C226.044 61.332 224.925 61.8569 223.16 61.8569H219.722L221.043 57.548H224.816C226.437 57.548 226.985 58.2806 226.564 59.6476" fill="white"/>
<path d="M260.165 63.8527L261.117 60.7263H253.699L254.604 57.8191H263.632L264.595 54.6523H251.213L246.511 70.0594H259.894L260.857 66.8984H251.801L252.741 63.8527H260.165Z" fill="white"/>
<path d="M189.899 54.6523H182.314L177.618 70.0594H181.962L183.433 65.2141H187.903C192.16 65.2141 194.271 63.7893 195.223 60.6802L195.39 60.1322C196.336 57.0461 194.796 54.6523 189.899 54.6523ZM190.943 59.9015L190.839 60.2418C190.395 61.7012 189.293 62.3126 187.453 62.3126H184.321L185.775 57.548H189.143C190.978 57.548 191.462 58.1998 190.943 59.9015" fill="white"/>
<path d="M247.826 57.8182L248.789 54.6572H233.832L232.863 57.8182H238.274L234.53 70.0643H238.897L242.635 57.8182H247.826Z" fill="white"/>
<path d="M275.883 54.6523H267.756L263.054 70.0594H267.398L269.007 64.7641H271.984L274.291 70.0594H278.894L276.16 64.3661C278.756 63.8758 280.359 62.5491 281.011 60.3687L281.127 59.9995C282.113 56.752 280.088 54.6523 275.883 54.6523ZM276.731 59.6476L276.696 59.7861C276.212 61.332 275.093 61.8569 273.328 61.8569H269.89L271.211 57.548H274.983C276.604 57.548 277.152 58.2806 276.731 59.6476" fill="white"/>
<path d="M206.376 54.3224C201.081 54.3224 198.272 56.249 196.928 60.6618L196.512 62.0289C194.863 67.428 197.954 70.0526 202.759 70.0526C208.055 70.0526 210.864 68.1318 212.214 63.719L212.618 62.3519C214.267 56.947 211.181 54.3224 206.376 54.3224ZM208.614 61.3655L207.968 63.4594C207.288 65.686 206.059 66.7993 203.556 66.7993C200.81 66.7993 199.823 65.3341 200.521 63.0153L201.167 60.9156C201.848 58.689 203.082 57.5758 205.574 57.5758C208.332 57.5758 209.312 59.0467 208.614 61.3655" fill="white"/>
<path d="M159.885 2.77762L160.676 0.210725H151.187L147.57 12.0819H157.053L157.838 9.51501H151.758L152.404 7.42688H157.22L157.988 4.89459H153.183L153.84 2.77762H159.885Z" fill="white"/>
<path d="M135.514 2.77762L136.298 0.210725H125.575L124.796 2.77762H128.626L125.788 12.0819H129.197L132.035 2.77762H135.514Z" fill="white"/>
<path d="M145.342 0.213565L143.958 4.74746H140.035L141.42 0.213565H137.999L134.377 12.079H137.797L139.262 7.27975H143.191L141.72 12.079H145.14L148.763 0.213565H145.342Z" fill="white"/>
<path d="M215.026 15.5381C204.856 15.5381 196.14 26.1345 196.14 37.0136C196.14 45.02 201.73 50.5922 207.804 50.5922C217.973 50.5922 226.695 39.99 226.695 29.111C226.695 21.1046 221.094 15.5381 215.026 15.5381ZM212.263 47.5234C210.872 48.9136 209.309 49.8365 207.244 49.8365C204.291 49.8365 202.162 48.0253 202.162 42.4819C202.162 36.0733 205.519 23.6657 210.572 18.6069C211.951 17.2167 213.52 16.2938 215.585 16.2938C218.538 16.2938 220.667 18.105 220.667 23.6484C220.667 30.057 217.316 42.4588 212.263 47.5234" fill="white"/>
<path d="M68.2355 15.5381C58.066 15.5381 49.3501 26.1345 49.3501 37.0136C49.3501 45.02 54.9396 50.5922 61.0136 50.5922C71.1832 50.5922 79.9048 39.99 79.9048 29.111C79.9048 21.1046 74.3038 15.5381 68.2355 15.5381ZM65.4725 47.5234C64.0824 48.9136 62.5192 49.8365 60.4541 49.8365C57.5007 49.8365 55.3722 48.0253 55.3722 42.4819C55.3722 36.0733 58.7294 23.6657 63.7824 18.6069C65.161 17.2167 66.73 16.2938 68.7951 16.2938C71.7484 16.2938 73.877 18.105 73.877 23.6484C73.877 30.057 70.5256 42.4588 65.4725 47.5234" fill="white"/>
<path d="M247.421 15.5381C237.251 15.5381 228.535 26.1345 228.535 37.0136C228.535 45.02 234.125 50.5922 240.199 50.5922C250.368 50.5922 259.09 39.99 259.09 29.111C259.09 21.1046 253.489 15.5381 247.421 15.5381ZM244.658 47.5234C243.267 48.9136 241.704 49.8365 239.639 49.8365C236.686 49.8365 234.557 48.0253 234.557 42.4819C234.557 36.0733 237.914 23.6657 242.967 18.6069C244.346 17.2167 245.915 16.2938 247.98 16.2938C250.934 16.2938 253.062 18.105 253.062 23.6484C253.062 30.057 249.711 42.4588 244.658 47.5234" fill="white"/>
<path d="M190.875 15.7289C188.602 15.7289 187.039 17.569 187.039 19.5533C187.039 21.6183 188.816 23.2738 190.8 23.2738C192.582 23.2738 193.967 22.0567 194.376 20.7358C194.521 21.526 194.584 22.3509 194.584 23.2162C194.584 34.6778 184.789 49.3293 177.608 49.3293C175.22 49.3293 173.559 47.8411 175.808 41.3633L183.497 16.398H176.495L171.522 32.6012C167.888 44.1897 162.495 49.3293 159.328 49.3293C157.119 49.3293 155.786 47.7257 157.494 42.1824L165.304 16.398L165.125 16.1788C163.845 16.2827 160.886 16.398 157.344 16.398H153.179L152.718 16.8306L152.96 17.1133H158.053L151.599 38.2599C149.124 46.3009 152.868 50.5868 158.405 50.5868C162.328 50.5868 166.533 46.2433 169.538 39.6443C168.171 46.3586 171.43 50.5868 176.281 50.5868C186.41 50.5868 195.536 33.9914 195.536 22.9162C195.536 17.5632 193.54 15.7289 190.875 15.7289Z" fill="white"/>
<path d="M47.4097 49.018H40.8685L55.5373 0.927604H61.5421L62.0036 0.494982L61.7613 0.21233H42.2067L41.7453 0.650723L41.9875 0.927604H48.027L40.8569 24.4162H21.4812L28.6512 0.927604H34.1484L34.6099 0.494982L34.3676 0.21233H14.813L14.3516 0.650723L14.5938 0.927604H21.1351L6.46628 49.018H0.461464L0 49.4506L0.242268 49.7333H19.7968L20.2641 49.3007L20.016 49.018H13.9824L21.2678 25.1314H40.6435L33.3581 49.018H27.8552L27.3937 49.4506L27.636 49.7333H47.1905L47.6578 49.3007L47.4097 49.018Z" fill="white"/>
<path d="M96.5399 37.9215L96.1823 38.1696C92.1041 47.5488 89.8372 49.0313 88.3662 49.0313C86.9126 49.0313 86.1224 47.9988 87.5933 43.0438L100.647 0.21409L100.468 0.000658981C99.1876 0.0987203 96.2342 0.21409 92.6925 0.21409H88.522L88.0605 0.646712L88.3028 0.929358H93.402L81.4789 40.0212C79.535 47.1797 82.2057 50.5887 86.8203 50.5887C89.693 50.5887 92.6117 48.6621 96.8514 38.383L96.5399 37.9215Z" fill="white"/>
<path d="M114.383 37.9215L114.025 38.1696C109.947 47.5488 107.68 49.0313 106.209 49.0313C104.755 49.0313 103.965 47.9988 105.436 43.0438L118.49 0.21409L118.311 0.000658981C117.03 0.0987203 114.077 0.21409 110.535 0.21409H106.365L105.903 0.646712L106.146 0.929358H111.245L99.3217 40.0212C97.3777 47.1797 100.048 50.5887 104.663 50.5887C107.536 50.5887 110.454 48.6621 114.694 38.383L114.383 37.9215Z" fill="white"/>
<path d="M138.309 30.7582C134.133 44.458 128.763 49.3264 125.452 49.3264C123.213 49.3264 122.06 47.544 123.363 43.039L131.381 16.3951L131.208 16.1817C129.934 16.2798 126.969 16.3951 123.427 16.3951H119.262L118.801 16.8278L119.049 17.1104H124.142L117.67 38.2109C115.201 46.4365 119.02 50.5897 124.506 50.5897C128.266 50.5897 132.316 46.9672 135.523 40.0048L130.205 57.2405C127.315 66.8678 123.888 69.5501 120.208 69.5501C116.303 69.5501 113.425 68.183 112.179 66.0545C112.75 66.5737 113.638 66.9486 114.642 66.9486C116.897 66.8736 118.576 65.1547 118.576 62.9569C118.576 60.8111 116.857 58.9883 114.665 58.9883C112.513 58.9883 110.644 60.7534 110.644 63.3492C110.644 67.2832 114.549 70.2885 120.11 70.2885C127.176 70.2885 134.346 66.7871 138.038 54.6506L149.707 16.3951H142.705L138.309 30.7582Z" fill="white"/>
<path d="M300 0.213602L299.821 0.0001762C298.546 0.0982375 295.587 0.213602 292.045 0.213602H287.875L287.419 0.646224L287.661 0.92887H292.761L286.225 22.4101C286.058 18.1934 283.497 15.5342 279.805 15.5342C270.61 15.5342 260.741 27.117 260.741 38.1172C260.741 46.7466 265.557 50.5883 269.976 50.5883C273.812 50.5883 277.803 47.583 280.659 41.6474C279.54 47.8022 282.182 50.5883 286.173 50.5883C289.052 50.5883 291.965 48.6616 296.21 38.3825L295.893 37.921L295.535 38.1691C291.457 47.5484 289.19 49.0308 287.719 49.0308C286.265 49.0308 285.475 47.9983 286.946 43.0433L300 0.213602ZM284.864 26.9728L282.643 34.189C278.796 46.8042 273.454 49.8326 270.495 49.8326C267.847 49.8326 266.821 47.9348 266.821 43.5163C266.821 31.1548 274.844 16.3995 280.872 16.3995C283.924 16.3995 286.808 20.495 284.864 26.9728" fill="white"/>
</g>
<defs>
<clipPath id="clip0">
<rect width="300" height="70.2886" fill="white"/>
</clipPath>
</defs>
</svg>
