<svg width="86" height="26" viewBox="0 0 86 26" fill="none" xmlns="http://www.w3.org/2000/svg">
<path d="M0.755096 0.167346H22.4929V5.12653H22.098L22.1439 1.94898H13.5571V24.3204H16.0367V25.0551H7.55101V24.3204H9.84693V1.94898H1.16836V5.12653H0.755096V0.167346ZM23.5306 0.167346H32.0714V0.856121H29.6377V24.3296H32.0622V25.0643H23.5214V24.3296H26.001V0.846937H23.5214V0.167346H23.5306ZM39.602 0.112244H41.2367L49.2265 19.3061L57.1612 0.112244H58.75L63.2041 24.3204H65.4449V25.0551H56.6286V24.3204H58.8969L56.1418 8.84592L49.0888 25.0735H47.4357L40.4561 8.8551L37.5173 24.3388H39.6571L39.6112 25.0735H33.1184L33.1643 24.3388H35.148L39.602 0.112244ZM66.1888 0.167346H84.9877L85.0337 5.08061H84.6939L84.5378 2.05L72.2316 1.91224V11.7388H82.701L82.949 9.44286H83.4082C83.298 11.5367 83.298 13.5755 83.4082 15.651H82.949L82.701 13.2816H72.2316V23.4388H84.9969L85.0337 20.0592H85.3826V25.0643H66.1888V24.3663L68.6684 24.3296V0.90204L66.1888 0.856121V0.176529V0.167346Z" fill="white"/>
</svg>
